<?xml version="1.0" encoding="UTF-8"?>
<!DOCTYPE svg PUBLIC "-//W3C//DTD SVG 1.1//EN" "http://www.w3.org/Graphics/SVG/1.1/DTD/svg11.dtd">
<!-- Creator: CorelDRAW -->
<svg xmlns="http://www.w3.org/2000/svg" xml:space="preserve" width="1065px" height="1062px" version="1.1" style="shape-rendering:geometricPrecision; text-rendering:geometricPrecision; image-rendering:optimizeQuality; fill-rule:evenodd; clip-rule:evenodd"
viewBox="0 0 439.24 437.72"
 xmlns:xlink="http://www.w3.org/1999/xlink"
 xmlns:xodm="http://www.corel.com/coreldraw/odm/2003">
 <defs>
  <style type="text/css">
   <![CDATA[
    .str0 {stroke:white;stroke-width:0.97;stroke-miterlimit:22.9256}
    .fil1 {fill:none}
    .fil0 {fill:#01FBA1}
   ]]>
  </style>
   <clipPath id="id0">
    <path d="M132.86 15.94l9.46 -15.45 99.97 0 41.63 22.7 15.77 6.31 15.45 23.34 -42.89 -15.77 -37.84 -21.13 -101.55 0z"/>
   </clipPath>
   <clipPath id="id1">
    <path d="M95.65 52.84l16.4 -26.18 101.86 0 -7.88 14.19 -49.2 0 -8.83 11.99 -52.35 0z"/>
   </clipPath>
   <clipPath id="id2">
    <path d="M71.68 88.47l17.03 -24.91 102.5 0 -8.2 13.56 -50.78 0 -7.25 11.35 -53.3 0z"/>
   </clipPath>
   <clipPath id="id3">
    <path d="M48.35 125.05l17.03 -25.86 102.49 0 -8.52 13.88 -50.45 0 -7.89 11.98 -52.66 0z"/>
   </clipPath>
   <clipPath id="id4">
    <path d="M24.74 160.78l16.45 -25.5 103.66 0 -8.22 13.71 -51.83 0 -7.41 11.79 -52.65 0z"/>
   </clipPath>
   <clipPath id="id5">
    <path d="M64.93 171.19l-47.28 0 -16.73 24.41 54.3 0 95.99 116.83 13.16 -21.67 0 -74.59 -22.68 10.91 0.19 37.35 -76.95 -93.24z"/>
   </clipPath>
   <clipPath id="id6">
    <path d="M187.22 299.69l-19.53 31.31 16.74 21.7 26.35 -40.27 0 -96.76 38.75 -20.77 -4.34 -20.46 -57.97 28.58 0 96.67z"/>
   </clipPath>
   <clipPath id="id7">
    <path d="M233.33 321.46l-33.48 51.15 17.67 22.32 38.44 -62.62 0 -93.32 40.92 -21.18 -27.28 -10.13 -36.27 18.29 0 95.49z"/>
   </clipPath>
   <clipPath id="id8">
    <path d="M276.36 343.95l-41.9 71.88 15.07 21.02 53.4 -81.41 0 -95.44 16.45 -8.35 36.66 25.61 6.47 20.49 43.41 -33.32 0 -33.54 -24.27 4.04 0 19.14 -9.3 9.3 -52.16 -36.52 -43.26 21.7 -0.57 95.4z"/>
   </clipPath>
   <clipPath id="id9">
    <path d="M209.74 100.33l23.41 7.25 8.99 45.69 -54.39 29.54 0 -21.1 31.41 -16.52 -9.42 -44.86z"/>
   </clipPath>
   <clipPath id="id10">
    <path d="M317.79 189.9l4.01 27.91 10.97 -14.79 -6.68 -31.83 -35.03 -14.01 -4.84 -28.35 -24.2 -9.45 9.17 52.22 46.6 18.3z"/>
   </clipPath>
   <clipPath id="id11">
    <path d="M339.16 225.06l15.89 11.64 13.81 -18.89 53.67 -10.13 3.12 -33.24 13.03 -17.98 -15.75 -32.83 -60.08 -22.85 -17.93 -27.58 -75.33 -27.91 -32.4 -18.63 -26.05 26.18 0 24.06 16.79 9.95 0 -20.03 14.21 -12.56 24.18 14.1 -13.21 13.22 -10.97 -7.29 0 20.14 17.07 9.18 29.39 -27.59 59.84 23.17 9.24 14.2 -32.77 -13.06 -23.04 13.42 34.12 13.27 -3.22 -14.2 76.13 29.44 5.98 12.7 -20.77 -9.41 -9.86 0 19.28 23.05 -1.54 21.66 -44.76 8.45 -18.07 26.35z"/>
   </clipPath>
 </defs>
 <g id="Camada_x0020_1">
  <metadata id="CorelCorpID_0Corel-Layer"/>
  <g>
  </g>
  <g style="clip-path:url(#id0)">
   <g id="_2172544767184">
    <polygon class="fil0" points="293.89,93.15 328.27,93.15 337.61,133.17 293.89,128.61 "/>
   </g>
  </g>
  <polygon class="fil1 str0" points="132.86,15.94 142.32,0.49 242.29,0.49 283.92,23.19 299.69,29.5 315.14,52.84 272.25,37.07 234.41,15.94 "/>
  <g>
  </g>
  <g style="clip-path:url(#id1)">
   <g id="_2172544770592">
    <polygon class="fil0" points="293.89,93.15 328.27,93.15 337.61,133.17 293.89,128.61 "/>
   </g>
  </g>
  <polygon class="fil1 str0" points="95.65,52.84 112.05,26.66 213.91,26.66 206.03,40.85 156.83,40.85 148,52.84 "/>
  <g>
  </g>
  <g style="clip-path:url(#id2)">
   <g id="_2172544709056">
    <polygon class="fil0" points="293.89,93.15 328.27,93.15 337.61,133.17 293.89,128.61 "/>
   </g>
  </g>
  <polygon class="fil1 str0" points="71.68,88.47 88.71,63.56 191.21,63.56 183.01,77.12 132.23,77.12 124.98,88.47 "/>
  <g>
  </g>
  <g style="clip-path:url(#id3)">
   <g id="_2172544709824">
    <polygon class="fil0" points="293.89,93.15 328.27,93.15 337.61,133.17 293.89,128.61 "/>
   </g>
  </g>
  <polygon class="fil1 str0" points="48.35,125.05 65.38,99.19 167.87,99.19 159.35,113.07 108.9,113.07 101.01,125.05 "/>
  <g>
  </g>
  <g style="clip-path:url(#id4)">
   <g id="_2172544712752">
    <polygon class="fil0" points="293.89,93.15 328.27,93.15 337.61,133.17 293.89,128.61 "/>
   </g>
  </g>
  <polygon class="fil1 str0" points="24.74,160.78 41.19,135.28 144.85,135.28 136.63,148.99 84.8,148.99 77.39,160.78 "/>
  <g>
  </g>
  <g style="clip-path:url(#id5)">
   <g id="_2172544714912">
    <polygon class="fil0" points="293.89,93.15 328.27,93.15 337.61,133.17 293.89,128.61 "/>
   </g>
  </g>
  <polygon class="fil1 str0" points="64.93,171.19 17.65,171.19 0.92,195.6 55.22,195.6 151.21,312.43 164.37,290.76 164.37,216.17 141.69,227.08 141.88,264.43 "/>
  <g>
  </g>
  <g style="clip-path:url(#id6)">
   <g id="_2172544715056">
    <polygon class="fil0" points="293.89,93.15 328.27,93.15 337.61,133.17 293.89,128.61 "/>
   </g>
  </g>
  <polygon class="fil1 str0" points="187.22,299.69 167.69,331 184.43,352.7 210.78,312.43 210.78,215.67 249.53,194.9 245.19,174.44 187.22,203.02 "/>
  <g>
  </g>
  <g style="clip-path:url(#id7)">
   <g id="_2172544714768">
    <polygon class="fil0" points="293.89,93.15 328.27,93.15 337.61,133.17 293.89,128.61 "/>
   </g>
  </g>
  <polygon class="fil1 str0" points="233.33,321.46 199.85,372.61 217.52,394.93 255.96,332.31 255.96,238.99 296.88,217.81 269.6,207.68 233.33,225.97 "/>
  <g>
  </g>
  <g style="clip-path:url(#id8)">
   <g id="_2172544717744">
    <polygon class="fil0" points="293.89,93.15 328.27,93.15 337.61,133.17 293.89,128.61 "/>
   </g>
  </g>
  <polygon class="fil1 str0" points="276.36,343.95 234.46,415.83 249.53,436.85 302.93,355.44 302.93,260 319.38,251.65 356.04,277.26 362.51,297.75 405.92,264.43 405.92,230.89 381.65,234.93 381.65,254.07 372.35,263.37 320.19,226.85 276.93,248.55 "/>
  <g>
  </g>
  <g style="clip-path:url(#id9)">
   <g id="_2172544716976">
    <polygon class="fil0" points="293.89,93.15 328.27,93.15 337.61,133.17 293.89,128.61 "/>
   </g>
  </g>
  <polygon class="fil1 str0" points="209.74,100.33 233.15,107.58 242.14,153.27 187.75,182.81 187.75,161.71 219.16,145.19 "/>
  <g>
  </g>
  <g style="clip-path:url(#id10)">
   <g id="_2172544722352">
    <polygon class="fil0" points="293.89,93.15 328.27,93.15 337.61,133.17 293.89,128.61 "/>
   </g>
  </g>
  <polygon class="fil1 str0" points="317.79,189.9 321.8,217.81 332.77,203.02 326.09,171.19 291.06,157.18 286.22,128.83 262.02,119.38 271.19,171.6 "/>
  <g>
  </g>
  <g style="clip-path:url(#id11)">
   <g id="_2172544721488">
    <polygon class="fil1" points="326.49,92.89 329.46,97.47 337.39,133.22 299.44,141.64 289.92,98.72 320.86,91.86 "/>
   </g>
  </g>
  <polygon class="fil1 str0" points="339.16,225.06 355.05,236.7 368.86,217.81 422.53,207.68 425.65,174.44 438.68,156.46 422.93,123.63 362.85,100.78 344.92,73.2 269.59,45.29 237.19,26.66 211.14,52.84 211.14,76.9 227.93,86.85 227.93,66.82 242.14,54.26 266.32,68.36 253.11,81.58 242.14,74.29 242.14,94.43 259.21,103.61 288.6,76.02 348.44,99.19 357.68,113.39 324.91,100.33 301.87,113.75 335.99,127.02 332.77,112.82 408.9,142.26 414.88,154.96 394.11,145.55 384.25,145.55 403.53,168.6 401.99,190.26 357.23,198.71 "/>
 </g>
</svg>
