<?xml version="1.0" encoding="UTF-8"?>
<!DOCTYPE svg PUBLIC "-//W3C//DTD SVG 1.1//EN" "http://www.w3.org/Graphics/SVG/1.1/DTD/svg11.dtd">
<!-- Creator: CorelDRAW -->
<svg xmlns="http://www.w3.org/2000/svg" xml:space="preserve" width="1926px" height="386px" version="1.1" style="shape-rendering:geometricPrecision; text-rendering:geometricPrecision; image-rendering:optimizeQuality; fill-rule:evenodd; clip-rule:evenodd"
viewBox="0 0 1194.97 239.46"
 xmlns:xlink="http://www.w3.org/1999/xlink"
 xmlns:xodm="http://www.corel.com/coreldraw/odm/2003">
 <defs>
  <style type="text/css">
   <![CDATA[
    .str0 {stroke:black;stroke-width:1.23;stroke-miterlimit:22.9256}
    .fil2 {fill:none}
    .fil14 {fill:black}
    .fil1 {fill:#01FBA1}
    .fil15 {fill:black;fill-rule:nonzero}
    .fil13 {fill:url(#id12)}
    .fil7 {fill:url(#id13)}
    .fil8 {fill:url(#id14)}
    .fil3 {fill:url(#id15)}
    .fil0 {fill:url(#id16)}
    .fil4 {fill:url(#id17)}
    .fil11 {fill:url(#id18)}
    .fil12 {fill:url(#id19)}
    .fil6 {fill:url(#id20)}
    .fil9 {fill:url(#id21)}
    .fil5 {fill:url(#id22)}
    .fil10 {fill:url(#id23)}
   ]]>
  </style>
     <clipPath id="id0">
      <path d="M1046.64 7.49l4.59 -7.49 48.49 0 20.19 11.01 7.65 3.06 7.49 11.32 -20.8 -7.65 -18.35 -10.25 -49.26 0z"/>
     </clipPath>
     <clipPath id="id1">
      <path d="M1028.6 25.39l7.95 -12.69 49.4 0 -3.82 6.88 -23.86 0 -4.28 5.81 -25.39 0z"/>
     </clipPath>
     <clipPath id="id2">
      <path d="M1016.97 42.67l8.26 -12.08 49.71 0 -3.98 6.58 -24.62 0 -3.52 5.5 -25.85 0z"/>
     </clipPath>
     <clipPath id="id3">
      <path d="M1005.65 60.42l8.26 -12.55 49.71 0 -4.13 6.74 -24.47 0 -3.82 5.81 -25.55 0z"/>
     </clipPath>
     <clipPath id="id4">
      <path d="M994.2 77.75l7.98 -12.37 50.28 0 -3.99 6.65 -25.14 0 -3.59 5.72 -25.54 0z"/>
     </clipPath>
     <clipPath id="id5">
      <path d="M1013.7 82.79l-22.93 0 -8.12 11.84 26.34 0 46.55 56.67 6.39 -10.51 0 -36.18 -11.01 5.29 0.1 18.12 -37.32 -45.23z"/>
     </clipPath>
     <clipPath id="id6">
      <path d="M1073.01 145.12l-9.47 15.18 8.11 10.53 12.79 -19.53 0 -46.93 18.79 -10.08 -2.1 -9.92 -28.12 13.86 0 46.89z"/>
     </clipPath>
     <clipPath id="id7">
      <path d="M1095.37 155.68l-16.24 24.81 8.57 10.82 18.65 -30.37 0 -45.26 19.85 -10.27 -13.23 -4.92 -17.6 8.87 0 46.32z"/>
     </clipPath>
     <clipPath id="id8">
      <path d="M1116.24 166.59l-20.32 34.86 7.31 10.2 25.9 -39.49 0 -46.29 7.98 -4.05 17.78 12.42 3.14 9.94 21.05 -16.16 0 -16.27 -11.77 1.96 0 9.28 -4.51 4.51 -25.3 -17.71 -20.98 10.52 -0.28 46.28z"/>
     </clipPath>
     <clipPath id="id9">
      <path d="M1083.93 48.42l11.35 3.52 4.37 22.16 -26.38 14.33 0 -10.24 15.23 -8.01 -4.57 -21.76z"/>
     </clipPath>
     <clipPath id="id10">
      <path d="M1136.34 91.87l1.94 13.54 5.32 -7.18 -3.24 -15.44 -16.99 -6.79 -2.34 -13.75 -11.74 -4.58 4.44 25.32 22.61 8.88z"/>
     </clipPath>
     <clipPath id="id11">
      <path d="M1146.7 108.92l7.71 5.65 6.7 -9.16 26.03 -4.92 1.51 -16.12 6.32 -8.72 -7.64 -15.93 -29.14 -11.08 -8.69 -13.37 -36.54 -13.54 -15.72 -9.03 -12.63 12.69 0 11.67 8.14 4.83 0 -9.72 6.9 -6.09 11.72 6.84 -6.4 6.41 -5.32 -3.53 0 9.77 8.28 4.45 14.25 -13.39 29.02 11.24 4.49 6.89 -15.9 -6.34 -11.17 6.51 16.54 6.44 -1.56 -6.89 36.93 14.28 2.9 6.16 -10.08 -4.56 -4.78 0 9.35 11.18 -0.74 10.5 -21.71 4.1 -8.77 12.78z"/>
     </clipPath>
  <linearGradient id="id12" gradientUnits="userSpaceOnUse" x1="1194.92" y1="65.76" x2="1084.66" y2="61.5">
   <stop offset="0" style="stop-opacity:1; stop-color:#B3B3B3"/>
   <stop offset="0.501961" style="stop-opacity:1; stop-color:black"/>
   <stop offset="1" style="stop-opacity:1; stop-color:black"/>
  </linearGradient>
  <linearGradient id="id13" gradientUnits="userSpaceOnUse" xlink:href="#id12" x1="1061.88" y1="118.68" x2="982.69" y2="115.41">
  </linearGradient>
  <linearGradient id="id14" gradientUnits="userSpaceOnUse" xlink:href="#id12" x1="1103.24" y1="127.92" x2="1063.53" y2="127.27">
  </linearGradient>
  <linearGradient id="id15" gradientUnits="userSpaceOnUse" xlink:href="#id12" x1="1085.24" y1="23.56" x2="1029.31" y2="14.53">
  </linearGradient>
  <linearGradient id="id16" gradientUnits="userSpaceOnUse" xlink:href="#id12" x1="1134.41" y1="18.11" x2="1047.29" y2="7.28">
  </linearGradient>
  <linearGradient id="id17" gradientUnits="userSpaceOnUse" xlink:href="#id12" x1="1074.13" y1="41.46" x2="1017.78" y2="31.8">
  </linearGradient>
  <linearGradient id="id18" gradientUnits="userSpaceOnUse" xlink:href="#id12" x1="1099.65" y1="68.74" x2="1073.26" y2="68.12">
  </linearGradient>
  <linearGradient id="id19" gradientUnits="userSpaceOnUse" xlink:href="#id12" x1="1143.6" y1="81.98" x2="1109.29" y2="81.1">
  </linearGradient>
  <linearGradient id="id20" gradientUnits="userSpaceOnUse" xlink:href="#id12" x1="1051.68" y1="76.33" x2="994.99" y2="66.79">
  </linearGradient>
  <linearGradient id="id21" gradientUnits="userSpaceOnUse" xlink:href="#id12" x1="1126.2" y1="146.34" x2="1079.13" y2="145.47">
  </linearGradient>
  <linearGradient id="id22" gradientUnits="userSpaceOnUse" xlink:href="#id12" x1="1062.87" y1="58.81" x2="1006.4" y2="49.49">
  </linearGradient>
  <linearGradient id="id23" gradientUnits="userSpaceOnUse" xlink:href="#id12" x1="1179.07" y1="161.93" x2="1095.93" y2="159.5">
  </linearGradient>
 </defs>
 <g id="Camada_x0020_1">
  <metadata id="CorelCorpID_0Corel-Layer"/>
  <g id="_2310048567312">
   <g>
    <polygon class="fil0" points="1046.64,7.49 1051.23,0 1099.72,0 1119.91,11.01 1127.56,14.07 1135.05,25.39 1114.25,17.74 1095.9,7.49 "/>
    <g style="clip-path:url(#id0)">
     <g>
      <polygon id="_1" class="fil1" points="1124.75,44.94 1141.42,44.94 1145.95,64.35 1124.75,62.14 "/>
     </g>
    </g>
    <polygon class="fil2" points="1046.64,7.49 1051.23,0 1099.72,0 1119.91,11.01 1127.56,14.07 1135.05,25.39 1114.25,17.74 1095.9,7.49 "/>
    <polygon class="fil3" points="1028.6,25.39 1036.55,12.7 1085.95,12.7 1082.13,19.58 1058.27,19.58 1053.99,25.39 "/>
    <g style="clip-path:url(#id1)">
     <g>
      <polygon id="_1_0" class="fil1" points="1124.75,44.94 1141.42,44.94 1145.95,64.35 1124.75,62.14 "/>
     </g>
    </g>
    <polygon class="fil2" points="1028.6,25.39 1036.55,12.7 1085.95,12.7 1082.13,19.58 1058.27,19.58 1053.99,25.39 "/>
    <polygon class="fil4" points="1016.97,42.67 1025.23,30.59 1074.94,30.59 1070.96,37.17 1046.34,37.17 1042.82,42.67 "/>
    <g style="clip-path:url(#id2)">
     <g>
      <polygon id="_1_1" class="fil1" points="1124.75,44.94 1141.42,44.94 1145.95,64.35 1124.75,62.14 "/>
     </g>
    </g>
    <polygon class="fil2" points="1016.97,42.67 1025.23,30.59 1074.94,30.59 1070.96,37.17 1046.34,37.17 1042.82,42.67 "/>
    <polygon class="fil5" points="1005.65,60.42 1013.91,47.87 1063.62,47.87 1059.49,54.61 1035.02,54.61 1031.2,60.42 "/>
    <g style="clip-path:url(#id3)">
     <g>
      <polygon id="_1_2" class="fil1" points="1124.75,44.94 1141.42,44.94 1145.95,64.35 1124.75,62.14 "/>
     </g>
    </g>
    <polygon class="fil2" points="1005.65,60.42 1013.91,47.87 1063.62,47.87 1059.49,54.61 1035.02,54.61 1031.2,60.42 "/>
    <polygon class="fil6" points="994.2,77.75 1002.18,65.38 1052.46,65.38 1048.47,72.03 1023.33,72.03 1019.74,77.75 "/>
    <g style="clip-path:url(#id4)">
     <g>
      <polygon id="_1_3" class="fil1" points="1124.75,44.94 1141.42,44.94 1145.95,64.35 1124.75,62.14 "/>
     </g>
    </g>
    <polygon class="fil2" points="994.2,77.75 1002.18,65.38 1052.46,65.38 1048.47,72.03 1023.33,72.03 1019.74,77.75 "/>
    <polygon class="fil7" points="1013.7,82.79 990.77,82.79 982.65,94.63 1008.99,94.63 1055.54,151.3 1061.93,140.79 1061.93,104.61 1050.92,109.9 1051.02,128.02 "/>
    <g style="clip-path:url(#id5)">
     <g>
      <polygon id="_1_4" class="fil1" points="1124.75,44.94 1141.42,44.94 1145.95,64.35 1124.75,62.14 "/>
     </g>
    </g>
    <polygon class="fil2" points="1013.7,82.79 990.77,82.79 982.65,94.63 1008.99,94.63 1055.54,151.3 1061.93,140.79 1061.93,104.61 1050.92,109.9 1051.02,128.02 "/>
    <polygon class="fil8" points="1073.01,145.12 1063.54,160.3 1071.65,170.83 1084.44,151.3 1084.44,104.37 1103.23,94.29 1101.13,84.37 1073.01,98.23 "/>
    <g style="clip-path:url(#id6)">
     <g>
      <polygon id="_1_5" class="fil1" points="1124.75,44.94 1141.42,44.94 1145.95,64.35 1124.75,62.14 "/>
     </g>
    </g>
    <polygon class="fil2" points="1073.01,145.12 1063.54,160.3 1071.65,170.83 1084.44,151.3 1084.44,104.37 1103.23,94.29 1101.13,84.37 1073.01,98.23 "/>
    <polygon class="fil9" points="1095.37,155.68 1079.13,180.49 1087.7,191.31 1106.35,160.94 1106.35,115.68 1126.2,105.41 1112.97,100.49 1095.37,109.36 "/>
    <g style="clip-path:url(#id7)">
     <g>
      <polygon id="_1_6" class="fil1" points="1124.75,44.94 1141.42,44.94 1145.95,64.35 1124.75,62.14 "/>
     </g>
    </g>
    <polygon class="fil2" points="1095.37,155.68 1079.13,180.49 1087.7,191.31 1106.35,160.94 1106.35,115.68 1126.2,105.41 1112.97,100.49 1095.37,109.36 "/>
    <polygon class="fil10" points="1116.24,166.59 1095.92,201.45 1103.23,211.65 1129.13,172.16 1129.13,125.87 1137.11,121.82 1154.89,134.24 1158.03,144.18 1179.08,128.02 1179.08,111.75 1167.31,113.71 1167.31,122.99 1162.8,127.5 1137.5,109.79 1116.52,120.31 "/>
    <g style="clip-path:url(#id8)">
     <g>
      <polygon id="_1_7" class="fil1" points="1124.75,44.94 1141.42,44.94 1145.95,64.35 1124.75,62.14 "/>
     </g>
    </g>
    <polygon class="fil2" points="1116.24,166.59 1095.92,201.45 1103.23,211.65 1129.13,172.16 1129.13,125.87 1137.11,121.82 1154.89,134.24 1158.03,144.18 1179.08,128.02 1179.08,111.75 1167.31,113.71 1167.31,122.99 1162.8,127.5 1137.5,109.79 1116.52,120.31 "/>
    <polygon class="fil11" points="1083.93,48.42 1095.28,51.94 1099.65,74.1 1073.27,88.43 1073.27,78.19 1088.5,70.18 "/>
    <g style="clip-path:url(#id9)">
     <g>
      <polygon id="_1_8" class="fil1" points="1124.75,44.94 1141.42,44.94 1145.95,64.35 1124.75,62.14 "/>
     </g>
    </g>
    <polygon class="fil2" points="1083.93,48.42 1095.28,51.94 1099.65,74.1 1073.27,88.43 1073.27,78.19 1088.5,70.18 "/>
    <polygon class="fil12" points="1136.34,91.87 1138.28,105.41 1143.6,98.23 1140.36,82.79 1123.37,76 1121.03,62.25 1109.29,57.67 1113.73,82.99 "/>
    <g style="clip-path:url(#id10)">
     <g>
      <polygon id="_1_9" class="fil1" points="1124.75,44.94 1141.42,44.94 1145.95,64.35 1124.75,62.14 "/>
     </g>
    </g>
    <polygon class="fil2" points="1136.34,91.87 1138.28,105.41 1143.6,98.23 1140.36,82.79 1123.37,76 1121.03,62.25 1109.29,57.67 1113.73,82.99 "/>
    <polygon class="fil13" points="1146.7,108.92 1154.41,114.57 1161.11,105.41 1187.14,100.49 1188.65,84.37 1194.97,75.65 1187.33,59.72 1158.19,48.64 1149.5,35.27 1112.96,21.73 1097.24,12.7 1084.61,25.39 1084.61,37.06 1092.75,41.89 1092.75,32.17 1099.65,26.08 1111.37,32.92 1104.97,39.33 1099.65,35.8 1099.65,45.57 1107.93,50.02 1122.18,36.63 1151.2,47.87 1155.69,54.76 1139.79,48.42 1128.62,54.93 1145.16,61.37 1143.6,54.48 1180.53,68.76 1183.43,74.92 1173.35,70.36 1168.57,70.36 1177.92,81.54 1177.18,92.04 1155.47,96.14 "/>
    <g style="clip-path:url(#id11)">
     <g>
      <polygon id="_1_10" class="fil14" points="1140.56,44.82 1142,47.04 1145.84,64.38 1127.44,68.46 1122.82,47.65 1137.82,44.32 "/>
     </g>
    </g>
    <polygon class="fil2" points="1146.7,108.92 1154.41,114.57 1161.11,105.41 1187.14,100.49 1188.65,84.37 1194.97,75.65 1187.33,59.72 1158.19,48.64 1149.5,35.27 1112.96,21.73 1097.24,12.7 1084.61,25.39 1084.61,37.06 1092.75,41.89 1092.75,32.17 1099.65,26.08 1111.37,32.92 1104.97,39.33 1099.65,35.8 1099.65,45.57 1107.93,50.02 1122.18,36.63 1151.2,47.87 1155.69,54.76 1139.79,48.42 1128.62,54.93 1145.16,61.37 1143.6,54.48 1180.53,68.76 1183.43,74.92 1173.35,70.36 1168.57,70.36 1177.92,81.54 1177.18,92.04 1155.47,96.14 "/>
   </g>
   <g>
    <path class="fil15" d="M536.23 207.79c17.09,0 32.7,-8.62 40.28,-23.19l-12.34 -7.13c-5.65,9.96 -15.76,16.05 -28.54,16.05 -19.47,0 -34.49,-16.2 -34.49,-37.46 0,-20.96 15.17,-37.01 34.49,-37.01 12.78,0 22.74,6.09 28.54,16.05l12.34 -7.13c-7.58,-14.57 -23.19,-23.34 -40.28,-23.34 -28.1,0 -50.69,22.74 -50.69,51.43 0,28.99 22.59,51.73 50.69,51.73zm86.21 0c11.89,0 21.56,-5.64 27.06,-14.56l0 12.78 13.97 0 0 -36.57c0,-21.7 -16.8,-38.05 -38.8,-38.05 -22.15,0 -38.8,17.24 -38.8,38.05 0,21.11 15.46,38.35 36.57,38.35zm2.23 -13.97c-13.53,0 -24.08,-11 -24.08,-24.23 0,-13.38 10.55,-24.38 24.08,-24.38 13.68,0 24.08,11 24.08,24.38 0,13.23 -10.4,24.23 -24.08,24.23zm74.62 45.64l0 -42.52c5.95,6.54 14.87,10.85 24.68,10.85 22.15,0 38.05,-16.35 38.05,-38.35 0,-20.81 -16.65,-38.05 -38.65,-38.05 -22,0 -38.79,16.35 -38.79,38.05l0 70.02 14.71 0zm24.08 -45.49c-13.67,0 -24.08,-11.15 -24.08,-24.38 0,-13.38 10.41,-24.23 24.08,-24.23 13.53,0 23.94,10.85 23.94,24.23 0,13.23 -10.41,24.38 -23.94,24.38zm65.56 -75.22c5.35,0 9.51,-4.31 9.51,-9.66 0,-5.35 -4.16,-9.81 -9.51,-9.81 -5.35,0 -9.66,4.46 -9.66,9.81 0,5.35 4.31,9.66 9.66,9.66zm-7.29 14.42l0 72.84 14.72 0 0 -72.84 -14.72 0zm71.8 74.77c5.35,0 11.15,-1.63 14.87,-4.16l0 -13.53c-3.57,2.53 -8.77,4.31 -13.53,4.31 -8.77,0 -14.42,-5.64 -14.42,-15.16l0 -33.44 27.95 0 0 -12.79 -27.95 0 0 -18.88 -14.72 0 0 18.88 -14.41 0 0 12.79 14.41 0 0 33.89c0,16.65 9.67,28.09 27.8,28.09zm64.22 -0.15c11.89,0 21.55,-5.64 27.05,-14.56l0 12.78 13.97 0 0 -36.57c0,-21.7 -16.79,-38.05 -38.79,-38.05 -22.15,0 -38.8,17.24 -38.8,38.05 0,21.11 15.46,38.35 36.57,38.35zm2.23 -13.97c-13.53,0 -24.08,-11 -24.08,-24.23 0,-13.38 10.55,-24.38 24.08,-24.38 13.67,0 24.08,11 24.08,24.38 0,13.23 -10.41,24.23 -24.08,24.23zm62.88 -94.09l0 106.28 14.71 0 0 -106.28 -14.71 0z"/>
    <g>
     <path class="fil15" d="M139.08 128.58c0,-45.98 -32.84,-76.34 -82.22,-76.34l-56.86 0 0 152.45 56.18 0c48.02,0 82.9,-29.22 82.9,-76.11zm-33.97 0c0,28.54 -20.39,46.44 -48.93,46.44l-23.11 0 0 -92.2 23.79 0c28.76,0 48.25,18.35 48.25,45.76zm112.8 79.06c34.43,0 60.94,-26.73 60.94,-59.35 0,-32.17 -26.28,-59.12 -60.94,-59.12 -34.2,0 -60.7,26.73 -60.7,59.12 0,32.62 26.27,59.35 60.7,59.35zm0 -30.13c-16.53,0 -28.54,-13.14 -28.54,-28.99 0,-15.86 12.01,-29 28.54,-29 16.54,0 28.77,13.14 28.77,29 0,15.85 -12.23,28.99 -28.77,28.99zm86.76 -136.59l0 163.77 32.17 0 0 -163.77 -32.17 0zm107.6 166.94c25.59,0 47.57,-14.49 47.57,-37.15 0,-42.13 -61.62,-27.63 -61.62,-45.75 0,-5.89 5.89,-9.74 13.82,-9.74 9.06,0 17.22,3.85 20.84,12l23.78 -13.36c-6.79,-12.91 -21.29,-24.24 -45.3,-24.24 -27.64,0 -45.3,15.86 -45.3,36.02 0,43.26 61.61,27.63 61.61,45.75 0,6.57 -6.57,10.65 -16.99,10.65 -11.33,0 -18.8,-3.85 -23.56,-12.91l-23.78 13.36c9.29,16.77 25.59,25.37 48.93,25.37z"/>
     <g>
      <g>
       <path class="fil2 str0" d="M469.51 188.41c5.37,0 9.73,4.36 9.73,9.73 0,5.37 -4.36,9.72 -9.73,9.72 -5.37,0 -9.72,-4.35 -9.72,-9.72 0,-5.37 4.35,-9.73 9.72,-9.73z"/>
      </g>
      <path class="fil15" d="M468.06 203.47l0.02 -3.58 0.95 0c1.26,0 1.75,0.55 2.26,1.58l1.01 2 2.63 0 -1.08 -2.22c-0.59,-1.16 -1,-1.93 -1.72,-2.33 1.43,-0.38 2.33,-1.57 2.33,-3.1 0,-2.39 -1.95,-3.57 -4.48,-3.57l-4.32 0 0 11.22 2.4 0zm1.95 -8.97c1.1,0 1.95,0.47 1.95,1.57 0,1.05 -0.83,1.65 -1.98,1.65l-1.9 0 0.01 -3.22 1.92 0z"/>
     </g>
    </g>
   </g>
  </g>
 </g>
</svg>
