<?xml version="1.0" encoding="UTF-8"?>
<!DOCTYPE svg PUBLIC "-//W3C//DTD SVG 1.1//EN" "http://www.w3.org/Graphics/SVG/1.1/DTD/svg11.dtd">
<!-- Creator: CorelDRAW -->
<svg xmlns="http://www.w3.org/2000/svg" xml:space="preserve" width="342px" height="341px" version="1.1" style="shape-rendering:geometricPrecision; text-rendering:geometricPrecision; image-rendering:optimizeQuality; fill-rule:evenodd; clip-rule:evenodd"
viewBox="0 0 111.51 111.16"
 xmlns:xlink="http://www.w3.org/1999/xlink"
 xmlns:xodm="http://www.corel.com/coreldraw/odm/2003">
 <defs>
  <style type="text/css">
   <![CDATA[
    .fil2 {fill:none}
    .fil1 {fill:#01FBA1}
    .fil14 {fill:#B3B3B3}
    .fil8 {fill:url(#id12)}
    .fil3 {fill:url(#id13)}
    .fil13 {fill:url(#id14)}
    .fil4 {fill:url(#id15)}
    .fil0 {fill:url(#id16)}
    .fil11 {fill:url(#id17)}
    .fil6 {fill:url(#id18)}
    .fil7 {fill:url(#id19)}
    .fil10 {fill:url(#id20)}
    .fil12 {fill:url(#id21)}
    .fil5 {fill:url(#id22)}
    .fil9 {fill:url(#id23)}
   ]]>
  </style>
    <clipPath id="id0">
     <path d="M33.61 3.94l2.41 -3.94 25.47 0 10.6 5.78 4.02 1.61 3.93 5.95 -10.92 -4.02 -9.64 -5.38 -25.87 0z"/>
    </clipPath>
    <clipPath id="id1">
     <path d="M24.13 13.34l4.18 -6.67 25.95 0 -2.01 3.61 -12.53 0 -2.25 3.06 -13.34 0z"/>
    </clipPath>
    <clipPath id="id2">
     <path d="M18.03 22.41l4.33 -6.34 26.11 0 -2.09 3.45 -12.93 0 -1.85 2.89 -13.57 0z"/>
    </clipPath>
    <clipPath id="id3">
     <path d="M12.08 31.73l4.34 -6.59 26.11 0 -2.17 3.54 -12.86 0 -2 3.05 -13.42 0z"/>
    </clipPath>
    <clipPath id="id4">
     <path d="M6.07 40.83l4.19 -6.49 26.4 0 -2.09 3.49 -13.2 0 -1.89 3 -13.41 0z"/>
    </clipPath>
    <clipPath id="id5">
     <path d="M16.31 43.48l-12.05 0 -4.26 6.22 13.83 0 24.45 29.76 3.36 -5.52 0 -19 -5.78 2.78 0.05 9.52 -19.6 -23.76z"/>
    </clipPath>
    <clipPath id="id6">
     <path d="M47.46 76.22l-4.98 7.97 4.27 5.53 6.71 -10.26 0 -24.64 9.87 -5.3 -1.11 -5.21 -14.76 7.28 0 24.63z"/>
    </clipPath>
    <clipPath id="id7">
     <path d="M59.2 81.76l-8.53 13.04 4.5 5.68 9.8 -15.95 0 -23.77 10.42 -5.4 -6.95 -2.58 -9.24 4.66 0 24.32z"/>
    </clipPath>
    <clipPath id="id8">
     <path d="M70.16 87.49l-10.67 18.31 3.84 5.36 13.6 -20.74 0 -24.31 4.19 -2.13 9.34 6.52 1.65 5.22 11.06 -8.48 0 -8.55 -6.18 1.03 0 4.88 -2.37 2.37 -13.29 -9.31 -11.02 5.53 -0.15 24.3z"/>
    </clipPath>
    <clipPath id="id9">
     <path d="M53.19 25.43l5.97 1.85 2.29 11.64 -13.86 7.52 0 -5.37 8 -4.21 -2.4 -11.43z"/>
    </clipPath>
    <clipPath id="id10">
     <path d="M80.72 48.25l1.02 7.11 2.79 -3.77 -1.7 -8.11 -8.92 -3.56 -1.23 -7.23 -6.17 -2.4 2.34 13.3 11.87 4.66z"/>
    </clipPath>
    <clipPath id="id11">
     <path d="M86.16 57.21l4.05 2.96 3.52 -4.81 13.67 -2.58 0.79 -8.47 3.32 -4.58 -4.01 -8.36 -15.3 -5.82 -4.57 -7.03 -19.19 -7.11 -8.25 -4.74 -6.64 6.67 0 6.12 4.28 2.54 0 -5.1 3.62 -3.2 6.16 3.59 -3.37 3.37 -2.79 -1.86 0 5.13 4.35 2.34 7.48 -7.03 15.25 5.9 2.35 3.62 -8.35 -3.33 -5.87 3.42 8.69 3.38 -0.82 -3.61 19.4 7.49 1.52 3.24 -5.29 -2.4 -2.51 0 4.91 5.87 -0.39 5.52 -11.4 2.15 -4.61 6.72z"/>
    </clipPath>
  <linearGradient id="id12" gradientUnits="userSpaceOnUse" x1="63.33" y1="67.19" x2="42.48" y2="66.85">
   <stop offset="0" style="stop-opacity:1; stop-color:#D4D4D4"/>
   <stop offset="0.501961" style="stop-opacity:1; stop-color:white"/>
   <stop offset="1" style="stop-opacity:1; stop-color:white"/>
  </linearGradient>
  <linearGradient id="id13" gradientUnits="userSpaceOnUse" xlink:href="#id12" x1="53.88" y1="12.37" x2="24.5" y2="7.63">
  </linearGradient>
  <linearGradient id="id14" gradientUnits="userSpaceOnUse" xlink:href="#id12" x1="111.49" y1="34.54" x2="53.57" y2="32.3">
  </linearGradient>
  <linearGradient id="id15" gradientUnits="userSpaceOnUse" xlink:href="#id12" x1="48.05" y1="21.78" x2="18.45" y2="16.7">
  </linearGradient>
  <linearGradient id="id16" gradientUnits="userSpaceOnUse" xlink:href="#id12" x1="79.7" y1="9.51" x2="33.95" y2="3.82">
  </linearGradient>
  <linearGradient id="id17" gradientUnits="userSpaceOnUse" xlink:href="#id12" x1="61.45" y1="36.1" x2="47.59" y2="35.78">
  </linearGradient>
  <linearGradient id="id18" gradientUnits="userSpaceOnUse" xlink:href="#id12" x1="36.25" y1="40.09" x2="6.48" y2="35.08">
  </linearGradient>
  <linearGradient id="id19" gradientUnits="userSpaceOnUse" xlink:href="#id12" x1="41.61" y1="62.33" x2="0.02" y2="60.61">
  </linearGradient>
  <linearGradient id="id20" gradientUnits="userSpaceOnUse" xlink:href="#id12" x1="103.16" y1="85.05" x2="59.49" y2="83.77">
  </linearGradient>
  <linearGradient id="id21" gradientUnits="userSpaceOnUse" xlink:href="#id12" x1="84.53" y1="43.06" x2="66.51" y2="42.59">
  </linearGradient>
  <linearGradient id="id22" gradientUnits="userSpaceOnUse" xlink:href="#id12" x1="42.13" y1="30.89" x2="12.47" y2="25.99">
  </linearGradient>
  <linearGradient id="id23" gradientUnits="userSpaceOnUse" xlink:href="#id12" x1="75.4" y1="76.86" x2="50.67" y2="76.4">
  </linearGradient>
 </defs>
 <g id="Camada_x0020_1">
  <metadata id="CorelCorpID_0Corel-Layer"/>
  <g id="_2283199208544">
   <polygon class="fil0" points="33.61,3.94 36.02,0 61.49,0 72.09,5.78 76.11,7.39 80.04,13.34 69.12,9.32 59.48,3.94 "/>
   <g style="clip-path:url(#id0)">
    <g>
     <polygon id="_1" class="fil1" points="74.63,23.61 83.39,23.61 85.77,33.8 74.63,32.64 "/>
    </g>
   </g>
   <polygon class="fil2" points="33.61,3.94 36.02,0 61.49,0 72.09,5.78 76.11,7.39 80.04,13.34 69.12,9.32 59.48,3.94 "/>
   <polygon class="fil3" points="24.13,13.34 28.31,6.67 54.26,6.67 52.25,10.28 39.72,10.28 37.47,13.34 "/>
   <g style="clip-path:url(#id1)">
    <g>
     <polygon id="_1_0" class="fil1" points="74.63,23.61 83.39,23.61 85.77,33.8 74.63,32.64 "/>
    </g>
   </g>
   <polygon class="fil2" points="24.13,13.34 28.31,6.67 54.26,6.67 52.25,10.28 39.72,10.28 37.47,13.34 "/>
   <polygon class="fil4" points="18.03,22.41 22.36,16.07 48.47,16.07 46.38,19.52 33.45,19.52 31.6,22.41 "/>
   <g style="clip-path:url(#id2)">
    <g>
     <polygon id="_1_1" class="fil1" points="74.63,23.61 83.39,23.61 85.77,33.8 74.63,32.64 "/>
    </g>
   </g>
   <polygon class="fil2" points="18.03,22.41 22.36,16.07 48.47,16.07 46.38,19.52 33.45,19.52 31.6,22.41 "/>
   <polygon class="fil5" points="12.08,31.73 16.42,25.14 42.53,25.14 40.36,28.68 27.5,28.68 25.5,31.73 "/>
   <g style="clip-path:url(#id3)">
    <g>
     <polygon id="_1_2" class="fil1" points="74.63,23.61 83.39,23.61 85.77,33.8 74.63,32.64 "/>
    </g>
   </g>
   <polygon class="fil2" points="12.08,31.73 16.42,25.14 42.53,25.14 40.36,28.68 27.5,28.68 25.5,31.73 "/>
   <polygon class="fil6" points="6.07,40.83 10.26,34.34 36.66,34.34 34.57,37.83 21.37,37.83 19.48,40.83 "/>
   <g style="clip-path:url(#id4)">
    <g>
     <polygon id="_1_3" class="fil1" points="74.63,23.61 83.39,23.61 85.77,33.8 74.63,32.64 "/>
    </g>
   </g>
   <polygon class="fil2" points="6.07,40.83 10.26,34.34 36.66,34.34 34.57,37.83 21.37,37.83 19.48,40.83 "/>
   <polygon class="fil7" points="16.31,43.48 4.26,43.48 0,49.7 13.83,49.7 38.28,79.46 41.64,73.94 41.64,54.94 35.86,57.72 35.91,67.24 "/>
   <g style="clip-path:url(#id5)">
    <g>
     <polygon id="_1_4" class="fil1" points="74.63,23.61 83.39,23.61 85.77,33.8 74.63,32.64 "/>
    </g>
   </g>
   <polygon class="fil2" points="16.31,43.48 4.26,43.48 0,49.7 13.83,49.7 38.28,79.46 41.64,73.94 41.64,54.94 35.86,57.72 35.91,67.24 "/>
   <polygon class="fil8" points="47.46,76.22 42.48,84.19 46.75,89.72 53.46,79.46 53.46,54.82 63.33,49.52 62.22,44.31 47.46,51.59 "/>
   <g style="clip-path:url(#id6)">
    <g>
     <polygon id="_1_5" class="fil1" points="74.63,23.61 83.39,23.61 85.77,33.8 74.63,32.64 "/>
    </g>
   </g>
   <polygon class="fil2" points="47.46,76.22 42.48,84.19 46.75,89.72 53.46,79.46 53.46,54.82 63.33,49.52 62.22,44.31 47.46,51.59 "/>
   <polygon class="fil9" points="59.2,81.76 50.67,94.8 55.17,100.48 64.97,84.53 64.97,60.76 75.39,55.36 68.44,52.78 59.2,57.44 "/>
   <g style="clip-path:url(#id7)">
    <g>
     <polygon id="_1_6" class="fil1" points="74.63,23.61 83.39,23.61 85.77,33.8 74.63,32.64 "/>
    </g>
   </g>
   <polygon class="fil2" points="59.2,81.76 50.67,94.8 55.17,100.48 64.97,84.53 64.97,60.76 75.39,55.36 68.44,52.78 59.2,57.44 "/>
   <polygon class="fil10" points="70.16,87.49 59.49,105.8 63.33,111.16 76.93,90.42 76.93,66.11 81.12,63.98 90.46,70.5 92.11,75.72 103.17,67.24 103.17,58.69 96.99,59.72 96.99,64.6 94.62,66.97 81.33,57.66 70.31,63.19 "/>
   <g style="clip-path:url(#id8)">
    <g>
     <polygon id="_1_7" class="fil1" points="74.63,23.61 83.39,23.61 85.77,33.8 74.63,32.64 "/>
    </g>
   </g>
   <polygon class="fil2" points="70.16,87.49 59.49,105.8 63.33,111.16 76.93,90.42 76.93,66.11 81.12,63.98 90.46,70.5 92.11,75.72 103.17,67.24 103.17,58.69 96.99,59.72 96.99,64.6 94.62,66.97 81.33,57.66 70.31,63.19 "/>
   <polygon class="fil11" points="53.19,25.43 59.16,27.28 61.45,38.92 47.59,46.44 47.59,41.07 55.59,36.86 "/>
   <g style="clip-path:url(#id9)">
    <g>
     <polygon id="_1_8" class="fil1" points="74.63,23.61 83.39,23.61 85.77,33.8 74.63,32.64 "/>
    </g>
   </g>
   <polygon class="fil2" points="53.19,25.43 59.16,27.28 61.45,38.92 47.59,46.44 47.59,41.07 55.59,36.86 "/>
   <polygon class="fil12" points="80.72,48.25 81.74,55.36 84.53,51.59 82.83,43.48 73.91,39.92 72.68,32.69 66.51,30.29 68.85,43.59 "/>
   <g style="clip-path:url(#id10)">
    <g>
     <polygon id="_1_9" class="fil1" points="74.63,23.61 83.39,23.61 85.77,33.8 74.63,32.64 "/>
    </g>
   </g>
   <polygon class="fil2" points="80.72,48.25 81.74,55.36 84.53,51.59 82.83,43.48 73.91,39.92 72.68,32.69 66.51,30.29 68.85,43.59 "/>
   <polygon class="fil13" points="86.16,57.21 90.21,60.17 93.73,55.36 107.4,52.78 108.19,44.31 111.51,39.73 107.5,31.37 92.2,25.55 87.63,18.52 68.44,11.41 60.19,6.67 53.55,13.34 53.55,19.46 57.83,22 57.83,16.9 61.45,13.7 67.61,17.29 64.24,20.66 61.45,18.8 61.45,23.93 65.8,26.27 73.28,19.24 88.53,25.14 90.88,28.76 82.53,25.43 76.66,28.85 85.35,32.23 84.53,28.62 103.93,36.11 105.45,39.35 100.16,36.95 97.65,36.95 102.56,42.82 102.17,48.34 90.77,50.49 "/>
   <g style="clip-path:url(#id11)">
    <g>
     <polygon id="_1_10" class="fil14" points="82.93,23.54 83.69,24.71 85.71,33.81 76.04,35.96 73.62,25.02 81.5,23.28 "/>
    </g>
   </g>
   <polygon class="fil2" points="86.16,57.21 90.21,60.17 93.73,55.36 107.4,52.78 108.19,44.31 111.51,39.73 107.5,31.37 92.2,25.55 87.63,18.52 68.44,11.41 60.19,6.67 53.55,13.34 53.55,19.46 57.83,22 57.83,16.9 61.45,13.7 67.61,17.29 64.24,20.66 61.45,18.8 61.45,23.93 65.8,26.27 73.28,19.24 88.53,25.14 90.88,28.76 82.53,25.43 76.66,28.85 85.35,32.23 84.53,28.62 103.93,36.11 105.45,39.35 100.16,36.95 97.65,36.95 102.56,42.82 102.17,48.34 90.77,50.49 "/>
  </g>
 </g>
</svg>
