<?xml version="1.0" encoding="UTF-8"?>
<!DOCTYPE svg PUBLIC "-//W3C//DTD SVG 1.1//EN" "http://www.w3.org/Graphics/SVG/1.1/DTD/svg11.dtd">
<!-- Creator: CorelDRAW -->
<svg xmlns="http://www.w3.org/2000/svg" xml:space="preserve" width="2096px" height="553px" version="1.1" style="shape-rendering:geometricPrecision; text-rendering:geometricPrecision; image-rendering:optimizeQuality; fill-rule:evenodd; clip-rule:evenodd"
viewBox="0 0 5916.78 1562"
 xmlns:xlink="http://www.w3.org/1999/xlink"
 xmlns:xodm="http://www.corel.com/coreldraw/odm/2003">
 <defs>
  <style type="text/css">
   <![CDATA[
    .str0 {stroke:white;stroke-width:5.61;stroke-miterlimit:22.9256}
    .fil1 {fill:none}
    .fil4 {fill:#01FBA1}
    .fil16 {fill:#B3B3B3}
    .fil0 {fill:white;fill-rule:nonzero}
    .fil2 {fill:white;fill-rule:nonzero}
    .fil8 {fill:url(#id12)}
    .fil12 {fill:url(#id13)}
    .fil14 {fill:url(#id14)}
    .fil15 {fill:url(#id15)}
    .fil6 {fill:url(#id16)}
    .fil3 {fill:url(#id17)}
    .fil11 {fill:url(#id18)}
    .fil9 {fill:url(#id19)}
    .fil13 {fill:url(#id20)}
    .fil7 {fill:url(#id21)}
    .fil5 {fill:url(#id22)}
    .fil10 {fill:url(#id23)}
   ]]>
  </style>
     <clipPath id="id0">
      <path d="M5097.99 232.86l20.88 -34.1 220.61 0 91.87 50.11 34.79 13.92 34.1 51.49 -94.64 -34.79 -83.51 -46.63 -224.1 0z"/>
     </clipPath>
     <clipPath id="id1">
      <path d="M5015.88 314.28l36.19 -57.76 224.78 0 -17.4 31.32 -108.56 0 -19.49 26.44 -115.52 0z"/>
     </clipPath>
     <clipPath id="id2">
      <path d="M4962.99 392.92l37.58 -54.97 226.17 0 -18.09 29.92 -112.05 0 -16 25.05 -117.61 0z"/>
     </clipPath>
     <clipPath id="id3">
      <path d="M4911.49 473.65l37.58 -57.07 226.17 0 -18.79 30.63 -111.35 0 -17.39 26.44 -116.22 0z"/>
     </clipPath>
     <clipPath id="id4">
      <path d="M4859.39 552.49l36.31 -56.28 228.75 0 -18.15 30.26 -114.38 0 -16.34 26.02 -116.19 0z"/>
     </clipPath>
     <clipPath id="id5">
      <path d="M4948.09 575.46l-104.34 0 -36.91 53.87 119.83 0 211.81 257.8 29.05 -47.81 0 -164.61 -50.07 24.08 0.44 82.44 -169.81 -205.77z"/>
     </clipPath>
     <clipPath id="id6">
      <path d="M5217.95 859.02l-43.1 69.1 36.94 47.89 58.15 -88.88 0 -213.51 85.52 -45.83 -9.58 -45.16 -127.93 63.06 0 213.33z"/>
     </clipPath>
     <clipPath id="id7">
      <path d="M5319.7 907.07l-73.89 112.88 39 49.26 84.83 -138.19 0 -205.93 90.31 -46.74 -60.2 -22.36 -80.05 40.37 0 210.71z"/>
     </clipPath>
     <clipPath id="id8">
      <path d="M5414.66 956.7l-92.47 158.62 33.27 46.4 117.84 -179.67 0 -210.6 36.29 -18.44 80.91 56.52 14.27 45.21 95.78 -73.51 0 -74.03 -53.53 8.93 0 42.24 -20.53 20.52 -115.12 -80.61 -95.44 47.89 -1.27 210.53z"/>
     </clipPath>
     <clipPath id="id9">
      <path d="M5267.66 419.08l51.64 16 19.84 100.83 -120.02 65.19 0 -46.56 69.32 -36.45 -20.78 -99.01z"/>
     </clipPath>
     <clipPath id="id10">
      <path d="M5506.09 616.75l8.85 61.6 24.21 -32.66 -14.75 -70.23 -77.3 -30.92 -10.68 -62.55 -53.4 -20.85 20.22 115.22 102.85 40.39z"/>
     </clipPath>
     <clipPath id="id11">
      <path d="M5553.24 694.33l35.07 25.7 30.48 -41.68 118.43 -22.36 6.89 -73.36 28.75 -39.67 -34.75 -72.46 -132.59 -50.43 -39.56 -60.85 -166.25 -61.59 -71.49 -41.11 -57.49 57.76 0 53.09 37.06 21.97 0 -44.19 31.35 -27.72 53.37 31.12 -29.16 29.15 -24.21 -16.08 0 44.45 37.68 20.26 64.85 -60.9 132.05 51.15 20.4 31.34 -72.33 -28.84 -50.83 29.62 75.29 29.28 -7.1 -31.32 168 64.95 13.19 28.03 -45.83 -20.77 -21.76 0 42.53 50.87 -3.38 47.8 -98.77 18.64 -39.89 58.15z"/>
     </clipPath>
  <linearGradient id="id12" gradientUnits="userSpaceOnUse" x1="5120.89" y1="546.04" x2="4862.95" y2="502.66">
   <stop offset="0" style="stop-opacity:1; stop-color:#D4D4D4"/>
   <stop offset="0.501961" style="stop-opacity:1; stop-color:white"/>
   <stop offset="1" style="stop-opacity:1; stop-color:white"/>
  </linearGradient>
  <linearGradient id="id13" gradientUnits="userSpaceOnUse" xlink:href="#id12" x1="5700.52" y1="935.51" x2="5322.23" y2="924.48">
  </linearGradient>
  <linearGradient id="id14" gradientUnits="userSpaceOnUse" xlink:href="#id12" x1="5539.15" y1="571.75" x2="5383.02" y2="567.74">
  </linearGradient>
  <linearGradient id="id15" gradientUnits="userSpaceOnUse" xlink:href="#id12" x1="5772.64" y1="497.98" x2="5270.94" y2="478.57">
  </linearGradient>
  <linearGradient id="id16" gradientUnits="userSpaceOnUse" xlink:href="#id12" x1="5223.06" y1="387.4" x2="4966.66" y2="343.47">
  </linearGradient>
  <linearGradient id="id17" gradientUnits="userSpaceOnUse" xlink:href="#id12" x1="5497.31" y1="281.17" x2="5100.93" y2="231.88">
  </linearGradient>
  <linearGradient id="id18" gradientUnits="userSpaceOnUse" xlink:href="#id12" x1="5459.98" y1="864.58" x2="5245.78" y2="860.62">
  </linearGradient>
  <linearGradient id="id19" gradientUnits="userSpaceOnUse" xlink:href="#id12" x1="5167.34" y1="738.75" x2="4807.03" y2="723.85">
  </linearGradient>
  <linearGradient id="id20" gradientUnits="userSpaceOnUse" xlink:href="#id12" x1="5339.15" y1="511.5" x2="5219.11" y2="508.68">
  </linearGradient>
  <linearGradient id="id21" gradientUnits="userSpaceOnUse" xlink:href="#id12" x1="5171.83" y1="466.32" x2="4914.9" y2="423.91">
  </linearGradient>
  <linearGradient id="id22" gradientUnits="userSpaceOnUse" xlink:href="#id12" x1="5273.62" y1="305.94" x2="5019.11" y2="264.87">
  </linearGradient>
  <linearGradient id="id23" gradientUnits="userSpaceOnUse" xlink:href="#id12" x1="5355.49" y1="780.8" x2="5174.81" y2="777.84">
  </linearGradient>
 </defs>
 <g id="Camada_x0020_1">
  <metadata id="CorelCorpID_0Corel-Layer"/>
  <g id="_1899163879776">
   <path class="fil0" d="M2775.1 1144.19c77.78,0 148.8,-39.23 183.29,-105.51l-56.14 -32.46c-25.7,45.31 -71.69,73.05 -129.85,73.05 -88.6,0 -156.91,-73.72 -156.91,-170.44 0,-95.36 68.99,-168.41 156.91,-168.41 58.16,0 103.48,27.73 129.85,73.05l56.14 -32.47c-34.49,-66.28 -105.51,-106.18 -183.29,-106.18 -127.82,0 -230.63,103.48 -230.63,234.01 0,131.88 102.81,235.36 230.63,235.36zm392.28 0c54.1,0 98.07,-25.7 123.09,-66.28l0 58.17 63.57 0 0 -166.38c0,-98.75 -76.42,-173.14 -176.52,-173.14 -100.77,0 -176.52,78.45 -176.52,173.14 0,96.04 70.34,174.49 166.38,174.49zm10.14 -63.57c-61.55,0 -109.56,-50.05 -109.56,-110.24 0,-60.88 48.01,-110.92 109.56,-110.92 62.22,0 109.57,50.04 109.57,110.92 0,60.19 -47.35,110.24 -109.57,110.24zm339.52 207.63l0 -193.43c27.05,29.76 67.63,49.37 112.27,49.37 100.77,0 173.14,-74.39 173.14,-174.49 0,-94.69 -75.75,-173.14 -175.84,-173.14 -100.1,0 -176.53,74.39 -176.53,173.14l0 318.55 66.96 0zm109.57 -206.96c-62.23,0 -109.57,-50.72 -109.57,-110.91 0,-60.88 47.34,-110.25 109.57,-110.25 61.54,0 108.89,49.37 108.89,110.25 0,60.19 -47.35,110.91 -108.89,110.91zm298.26 -342.22c24.35,0 43.29,-19.61 43.29,-43.96 0,-24.35 -18.94,-44.64 -43.29,-44.64 -24.35,0 -43.96,20.29 -43.96,44.64 0,24.35 19.61,43.96 43.96,43.96zm-33.14 65.61l0 331.4 66.96 0 0 -331.4 -66.96 0zm326.66 340.19c24.35,0 50.73,-7.44 67.64,-18.94l0 -61.54c-16.23,11.49 -39.9,19.61 -61.55,19.61 -39.9,0 -65.6,-25.7 -65.6,-68.99l0 -152.17 127.15 0 0 -58.16 -127.15 0 0 -85.9 -66.96 0 0 85.9 -65.6 0 0 58.16 65.6 0 0 154.2c0,75.75 43.96,127.83 126.47,127.83zm292.18 -0.68c54.11,0 98.07,-25.7 123.09,-66.28l0 58.17 63.58 0 0 -166.38c0,-98.75 -76.43,-173.14 -176.53,-173.14 -100.77,0 -176.52,78.45 -176.52,173.14 0,96.04 70.34,174.49 166.38,174.49zm10.14 -63.57c-61.54,0 -109.56,-50.05 -109.56,-110.24 0,-60.88 48.02,-110.92 109.56,-110.92 62.23,0 109.57,50.04 109.57,110.92 0,60.19 -47.34,110.24 -109.57,110.24zm286.09 -428.12l0 483.58 66.96 0 0 -483.58 -66.96 0z"/>
   <g>
    <path class="fil0" d="M968.16 783.79c0,-209.22 -149.44,-347.33 -374.12,-347.33l-258.69 0 0 693.62 255.6 0c218.49,0 377.21,-132.95 377.21,-346.29zm-154.6 0c0,129.86 -92.75,211.28 -222.61,211.28l-105.13 0 0 -419.47 108.22 0c130.89,0 219.52,83.48 219.52,208.19zm513.26 359.69c156.66,0 277.24,-121.61 277.24,-270.03 0,-146.35 -119.55,-268.99 -277.24,-268.99 -155.63,0 -276.21,121.61 -276.21,268.99 0,148.42 119.55,270.03 276.21,270.03zm0 -137.07c-75.24,0 -129.86,-59.78 -129.86,-131.93 0,-72.14 54.62,-131.92 129.86,-131.92 75.24,0 130.89,59.78 130.89,131.92 0,72.15 -55.65,131.93 -130.89,131.93zm394.73 -621.48l0 745.15 146.35 0 0 -745.15 -146.35 0zm489.55 759.58c116.47,0 216.44,-65.96 216.44,-169.02 0,-191.7 -280.33,-125.74 -280.33,-208.19 0,-26.8 26.79,-44.32 62.86,-44.32 41.23,0 78.33,17.52 94.82,54.62l108.22 -60.8c-30.92,-58.75 -96.88,-110.28 -206.13,-110.28 -125.74,0 -206.12,72.14 -206.12,163.87 0,196.85 280.33,125.74 280.33,208.19 0,29.89 -29.89,48.44 -77.3,48.44 -51.53,0 -85.54,-17.52 -107.19,-58.75l-108.21 60.81c42.25,76.27 116.46,115.43 222.61,115.43z"/>
    <g>
     <path class="fil1 str0" d="M2471.57 1056.02c24.43,0 44.23,19.81 44.23,44.24 0,24.43 -19.8,44.23 -44.23,44.23 -24.44,0 -44.24,-19.8 -44.24,-44.23 0,-24.43 19.8,-44.24 44.24,-44.24z"/>
    </g>
    <path class="fil2" d="M2464.95 1124.53l0.08 -16.31 4.33 0c5.76,0 7.96,2.5 10.32,7.21l4.55 9.1 11.99 0 -4.93 -10.09c-2.66,-5.31 -4.55,-8.8 -7.82,-10.63 6.53,-1.74 10.63,-7.13 10.63,-14.11 0,-10.85 -8.88,-16.24 -20.42,-16.24l-19.65 0 0 51.07 10.92 0zm8.88 -40.83c5.01,0 8.88,2.13 8.88,7.14 0,4.78 -3.79,7.51 -9.03,7.51l-8.65 0 0.07 -14.65 8.73 0z"/>
   </g>
   <g>
    <polygon class="fil3" points="5097.99,232.86 5118.87,198.76 5339.48,198.76 5431.35,248.87 5466.14,262.79 5500.24,314.28 5405.6,279.49 5322.09,232.86 "/>
    <g style="clip-path:url(#id0)">
     <g>
      <polygon id="_1" class="fil4" points="5453.35,403.25 5529.21,403.25 5549.81,491.56 5453.35,481.5 "/>
     </g>
    </g>
    <polygon class="fil1" points="5097.99,232.86 5118.87,198.76 5339.48,198.76 5431.35,248.87 5466.14,262.79 5500.24,314.28 5405.6,279.49 5322.09,232.86 "/>
    <polygon class="fil5" points="5015.88,314.28 5052.07,256.52 5276.85,256.52 5259.45,287.84 5150.89,287.84 5131.4,314.28 "/>
    <g style="clip-path:url(#id1)">
     <g>
      <polygon id="_1_11" class="fil4" points="5453.35,403.25 5529.21,403.25 5549.81,491.56 5453.35,481.5 "/>
     </g>
    </g>
    <polygon class="fil1" points="5015.88,314.28 5052.07,256.52 5276.85,256.52 5259.45,287.84 5150.89,287.84 5131.4,314.28 "/>
    <polygon class="fil6" points="4962.99,392.92 5000.57,337.95 5226.74,337.95 5208.65,367.87 5096.6,367.87 5080.6,392.92 "/>
    <g style="clip-path:url(#id2)">
     <g>
      <polygon id="_1_12" class="fil4" points="5453.35,403.25 5529.21,403.25 5549.81,491.56 5453.35,481.5 "/>
     </g>
    </g>
    <polygon class="fil1" points="4962.99,392.92 5000.57,337.95 5226.74,337.95 5208.65,367.87 5096.6,367.87 5080.6,392.92 "/>
    <polygon class="fil7" points="4911.49,473.65 4949.07,416.58 5175.24,416.58 5156.45,447.21 5045.1,447.21 5027.71,473.65 "/>
    <g style="clip-path:url(#id3)">
     <g>
      <polygon id="_1_13" class="fil4" points="5453.35,403.25 5529.21,403.25 5549.81,491.56 5453.35,481.5 "/>
     </g>
    </g>
    <polygon class="fil1" points="4911.49,473.65 4949.07,416.58 5175.24,416.58 5156.45,447.21 5045.1,447.21 5027.71,473.65 "/>
    <polygon class="fil8" points="4859.39,552.49 4895.7,496.21 5124.45,496.21 5106.3,526.47 4991.92,526.47 4975.58,552.49 "/>
    <g style="clip-path:url(#id4)">
     <g>
      <polygon id="_1_14" class="fil4" points="5453.35,403.25 5529.21,403.25 5549.81,491.56 5453.35,481.5 "/>
     </g>
    </g>
    <polygon class="fil1" points="4859.39,552.49 4895.7,496.21 5124.45,496.21 5106.3,526.47 4991.92,526.47 4975.58,552.49 "/>
    <polygon class="fil9" points="4948.09,575.46 4843.75,575.46 4806.84,629.33 4926.67,629.33 5138.48,887.13 5167.53,839.32 5167.53,674.71 5117.46,698.79 5117.9,781.23 "/>
    <g style="clip-path:url(#id5)">
     <g>
      <polygon id="_1_15" class="fil4" points="5453.35,403.25 5529.21,403.25 5549.81,491.56 5453.35,481.5 "/>
     </g>
    </g>
    <polygon class="fil1" points="4948.09,575.46 4843.75,575.46 4806.84,629.33 4926.67,629.33 5138.48,887.13 5167.53,839.32 5167.53,674.71 5117.46,698.79 5117.9,781.23 "/>
    <polygon class="fil10" points="5217.95,859.02 5174.85,928.12 5211.79,976.01 5269.94,887.13 5269.94,673.62 5355.46,627.79 5345.88,582.63 5217.95,645.69 "/>
    <g style="clip-path:url(#id6)">
     <g>
      <polygon id="_1_16" class="fil4" points="5453.35,403.25 5529.21,403.25 5549.81,491.56 5453.35,481.5 "/>
     </g>
    </g>
    <polygon class="fil1" points="5217.95,859.02 5174.85,928.12 5211.79,976.01 5269.94,887.13 5269.94,673.62 5355.46,627.79 5345.88,582.63 5217.95,645.69 "/>
    <polygon class="fil11" points="5319.7,907.07 5245.81,1019.95 5284.81,1069.21 5369.64,931.02 5369.64,725.09 5459.95,678.35 5399.75,655.99 5319.7,696.36 "/>
    <g style="clip-path:url(#id7)">
     <g>
      <polygon id="_1_17" class="fil4" points="5453.35,403.25 5529.21,403.25 5549.81,491.56 5453.35,481.5 "/>
     </g>
    </g>
    <polygon class="fil1" points="5319.7,907.07 5245.81,1019.95 5284.81,1069.21 5369.64,931.02 5369.64,725.09 5459.95,678.35 5399.75,655.99 5319.7,696.36 "/>
    <polygon class="fil12" points="5414.66,956.7 5322.19,1115.32 5355.46,1161.72 5473.3,982.05 5473.3,771.45 5509.59,753.01 5590.5,809.53 5604.77,854.74 5700.55,781.23 5700.55,707.2 5647.02,716.13 5647.02,758.37 5626.49,778.89 5511.37,698.28 5415.93,746.17 "/>
    <g style="clip-path:url(#id8)">
     <g>
      <polygon id="_1_18" class="fil4" points="5453.35,403.25 5529.21,403.25 5549.81,491.56 5453.35,481.5 "/>
     </g>
    </g>
    <polygon class="fil1" points="5414.66,956.7 5322.19,1115.32 5355.46,1161.72 5473.3,982.05 5473.3,771.45 5509.59,753.01 5590.5,809.53 5604.77,854.74 5700.55,781.23 5700.55,707.2 5647.02,716.13 5647.02,758.37 5626.49,778.89 5511.37,698.28 5415.93,746.17 "/>
    <polygon class="fil13" points="5267.66,419.08 5319.3,435.08 5339.14,535.91 5219.12,601.1 5219.12,554.54 5288.44,518.09 "/>
    <g style="clip-path:url(#id9)">
     <g>
      <polygon id="_1_19" class="fil4" points="5453.35,403.25 5529.21,403.25 5549.81,491.56 5453.35,481.5 "/>
     </g>
    </g>
    <polygon class="fil1" points="5267.66,419.08 5319.3,435.08 5339.14,535.91 5219.12,601.1 5219.12,554.54 5288.44,518.09 "/>
    <polygon class="fil14" points="5506.09,616.75 5514.94,678.35 5539.15,645.69 5524.4,575.46 5447.1,544.54 5436.42,481.99 5383.02,461.14 5403.24,576.36 "/>
    <g style="clip-path:url(#id10)">
     <g>
      <polygon id="_1_20" class="fil4" points="5453.35,403.25 5529.21,403.25 5549.81,491.56 5453.35,481.5 "/>
     </g>
    </g>
    <polygon class="fil1" points="5506.09,616.75 5514.94,678.35 5539.15,645.69 5524.4,575.46 5447.1,544.54 5436.42,481.99 5383.02,461.14 5403.24,576.36 "/>
    <polygon class="fil15" points="5553.24,694.33 5588.31,720.03 5618.79,678.35 5737.22,655.99 5744.11,582.63 5772.86,542.96 5738.11,470.5 5605.52,420.07 5565.96,359.22 5399.71,297.63 5328.22,256.52 5270.73,314.28 5270.73,367.37 5307.79,389.34 5307.79,345.15 5339.14,317.43 5392.51,348.55 5363.35,377.7 5339.14,361.62 5339.14,406.07 5376.82,426.33 5441.67,365.43 5573.72,416.58 5594.12,447.92 5521.79,419.08 5470.96,448.7 5546.25,477.98 5539.15,446.66 5707.15,511.61 5720.34,539.64 5674.51,518.87 5652.75,518.87 5695.28,569.74 5691.9,617.54 5593.13,636.18 "/>
    <g style="clip-path:url(#id11)">
     <g>
      <polygon id="_1_21" class="fil16" points="5525.28,402.66 5531.84,412.78 5549.34,491.67 5465.58,510.25 5444.57,415.54 5512.85,400.39 "/>
     </g>
    </g>
    <polygon class="fil1" points="5553.24,694.33 5588.31,720.03 5618.79,678.35 5737.22,655.99 5744.11,582.63 5772.86,542.96 5738.11,470.5 5605.52,420.07 5565.96,359.22 5399.71,297.63 5328.22,256.52 5270.73,314.28 5270.73,367.37 5307.79,389.34 5307.79,345.15 5339.14,317.43 5392.51,348.55 5363.35,377.7 5339.14,361.62 5339.14,406.07 5376.82,426.33 5441.67,365.43 5573.72,416.58 5594.12,447.92 5521.79,419.08 5470.96,448.7 5546.25,477.98 5539.15,446.66 5707.15,511.61 5720.34,539.64 5674.51,518.87 5652.75,518.87 5695.28,569.74 5691.9,617.54 5593.13,636.18 "/>
   </g>
   <polygon class="fil1" points="0,0 5916.78,0 5916.78,1562 0,1562 "/>
  </g>
 </g>
</svg>
